<svg xmlns="http://www.w3.org/2000/svg" width="400" height="400" viewBox="0 0 400 400" xml:space="preserve">
  <g>
    <path vector-effect="non-scaling-stroke" d="m13.284 119.922 73.75 165.336 295.442-64.421V119.922z" fill="#cd1f3b"/>
    <path vector-effect="non-scaling-stroke" d="M125.135 153.374c-11.773 0-17.66 9.477-17.66 28.44 0 9.635 1.385 17.065 4.157 22.292 2.771 5.227 6.742 7.84 11.922 7.84 2.846 0 5.552-1.051 8.1-3.144 2.92-2.39 5.283-5.905 7.087-10.546 1.274-3.738 2.846-5.608 4.725-5.608 1.497 0 2.66.623 3.487 1.851.828 1.237 1.237 3.32 1.237 6.24v1.795c-.149.977-.223 1.684-.223 2.14-.298 3.152-.753 5.337-1.349 6.574-.595 1.237-1.804 2.53-3.599 3.878-4.278 2.325-6.528 3.525-6.751 3.6-4.8 2.101-9.486 3.152-14.062 3.152-8.928 0-16.052-3.552-21.371-10.667-5.33-7.114-7.99-16.684-7.99-28.718 0-12.034 2.754-20.972 8.269-28.16 5.514-7.19 12.731-10.78 21.65-10.78 1.497 0 2.864.112 4.101.335 1.237.224 3.692.865 7.366 1.916 1.274.447 2.325.68 3.143.68.223 0 1.2-.187 2.92-.568 1.72-.372 2.809-.567 3.265-.567 2.473 0 3.71 2.185 3.71 6.547l.447 14.192c0 3.636-1.386 5.45-4.157 5.45-2.772 0-4.241-1.358-4.613-4.083-.753-5.376-2.074-9.068-3.99-11.077-1.916-2.008-5.19-3.013-9.84-3.013M209.505 154.62h-4.622c-4.966 0-7.44-1.636-7.44-4.91 0-1.265.456-2.306 1.348-3.125.903-.818 1.981-1.227 3.265-1.227h19.79c3.525 0 5.282 1.767 5.282 5.31 0 1.507-.483 2.539-1.46 3.106-.976.568-2.855.847-5.626.847l-7.877 62.412c-.447 3.757-2.623 5.645-6.52 5.645-1.571 0-2.78-.307-3.599-.902-1.125-.828-2.139-2.632-3.04-5.422l-9.217-26.524-8.881 26.747c-1.33 4.064-3.73 6.092-7.19 6.092-3.84 0-6.054-2.111-6.64-6.324l-9.448-61.734c-2.474 0-4.25-.4-5.339-1.18-1.088-.791-1.636-1.972-1.636-3.553 0-1.358.53-2.446 1.571-3.274 1.051-.828 2.437-1.246 4.167-1.246h19.902c3.069 0 4.613 1.413 4.613 4.24 0 3.349-1.981 5.013-5.934 5.013h-4.027l5.98 45.04 7.422-22.33c1.2-3.552 3.031-5.328 5.496-5.328 2.697 0 4.631 1.767 5.83 5.292l8.78 24.552 5.05-47.226ZM270.439 154.62h-8.324v56.2h12.936c1.423 0 2.604.438 3.544 1.303.939.864 1.404 2.008 1.404 3.44 0 1.358-.493 2.446-1.46 3.274-.977.828-2.213 1.237-3.71 1.237h-37.564c-1.571 0-2.855-.41-3.822-1.237-.976-.828-1.46-1.99-1.46-3.497 0-1.348.446-2.446 1.349-3.273.902-.828 2.139-1.246 3.71-1.246h11.588v-56.2h-12.034c-1.349 0-2.465-.438-3.32-1.293-.865-.865-1.293-1.972-1.293-3.33 0-1.432.447-2.557 1.349-3.385.902-.827 2.139-1.246 3.71-1.246h35.759c3.45 0 5.17 1.507 5.17 4.51 0 1.88-.548 3.144-1.627 3.786-1.088.641-3.06.958-5.905.958" fill="#fff" fill-rule="evenodd"/>
  </g>
</svg>
